HIERARCHY
ROOT SpineBase
{
  OFFSET 0.000000 0.000000 0.000000
  CHANNELS 6 Xposition Yposition Zposition Zrotation Xrotation Yrotation
  JOINT SpineMid
  {
    OFFSET 0.000000 33.693576 0.000000
    CHANNELS 3 Zrotation Xrotation Yrotation
    JOINT SpineShoulder
    {
      OFFSET -0.207325 24.999524 -0.947608
      CHANNELS 3 Zrotation Xrotation Yrotation
      JOINT Neck
      {
        OFFSET -0.149129 8.251840 -0.688911
        CHANNELS 3 Zrotation Xrotation Yrotation
        JOINT Head
        {
          OFFSET 0.310823 13.267941 6.073053
          CHANNELS 3 Zrotation Xrotation Yrotation
          End Site
          {
            OFFSET 0 0 0
          }
        }
      }
      JOINT ShoulderLeft
      {
        OFFSET -15.366390 -8.142711 -5.999812
        CHANNELS 3 Zrotation Xrotation Yrotation
        JOINT ElbowLeft
        {
          OFFSET -4.491877 -26.067057 1.994680
          CHANNELS 3 Zrotation Xrotation Yrotation
          JOINT WristLeft
          {
            OFFSET -0.135996 -20.779666 8.677561
            CHANNELS 3 Zrotation Xrotation Yrotation
            JOINT HandLeft
            {
              OFFSET 0.970472 -2.806448 0.496403
              CHANNELS 3 Zrotation Xrotation Yrotation
              JOINT HandTipLeft
              {
                OFFSET 1.878937 -6.952637 0.535300
                CHANNELS 3 Zrotation Xrotation Yrotation
                End Site
                {
                  OFFSET 0 0 0
                }
              }
              JOINT ThumbLeft
              {
                OFFSET 2.588869 6.068824 -4.820022
                CHANNELS 3 Zrotation Xrotation Yrotation
                End Site
                {
                  OFFSET 0 0 0
                }
              }
            }
          }
        }
      }
      JOINT ShoulderRight
      {
        OFFSET 16.257714 -6.230140 -5.731718
        CHANNELS 3 Zrotation Xrotation Yrotation
        JOINT ElbowRight
        {
          OFFSET 7.847818 -26.555446 5.456890
          CHANNELS 3 Zrotation Xrotation Yrotation
          JOINT WristRight
          {
            OFFSET -1.036268 -21.391743 7.418271
            CHANNELS 3 Zrotation Xrotation Yrotation
            JOINT HandRight
            {
              OFFSET 1.088867 -1.968328 0.242095
              CHANNELS 3 Zrotation Xrotation Yrotation
              JOINT HandTipRight
              {
                OFFSET 0.463648 -1.426322 0.560274
                CHANNELS 3 Zrotation Xrotation Yrotation
                End Site
                {
                  OFFSET 0 0 0
                }
              }
              JOINT ThumbRight
              {
                OFFSET 0.360008 1.311964 -1.209752
                CHANNELS 3 Zrotation Xrotation Yrotation
                End Site
                {
                  OFFSET 0 0 0
                }
              }
            }
          }
        }
      }
    }
  }
  JOINT HipLeft
  {
    OFFSET -7.762738 1.345343 -3.314147
    CHANNELS 3 Zrotation Xrotation Yrotation
    JOINT KneeLeft
    {
      OFFSET 0.418811 -31.231668 -1.110970
      CHANNELS 3 Zrotation Xrotation Yrotation
      JOINT AnkleLeft
      {
        OFFSET -1.293744 -31.574816 0.150859
        CHANNELS 3 Zrotation Xrotation Yrotation
        JOINT FootLeft
        {
          OFFSET -0.351989 -2.464042 -12.711828
          CHANNELS 3 Zrotation Xrotation Yrotation
          End Site
          {
            OFFSET 0 0 0
          }
        }
      }
    }
  }
  JOINT HipRight
  {
    OFFSET 6.382661 1.803702 -3.659611
    CHANNELS 3 Zrotation Xrotation Yrotation
    JOINT KneeRight
    {
      OFFSET 3.131931 -30.357917 -2.794378
      CHANNELS 3 Zrotation Xrotation Yrotation
      JOINT AnkleRight
      {
        OFFSET 1.070497 -31.919523 -0.548348
        CHANNELS 3 Zrotation Xrotation Yrotation
        JOINT FootRight
        {
          OFFSET -0.838696 -1.894207 -14.364823
          CHANNELS 3 Zrotation Xrotation Yrotation
          End Site
          {
            OFFSET 0 0 0
          }
        }
      }
    }
  }
}
MOTION
Frames: 9
Frame Time: 0.033333
41.795391 66.302278 212.766514 -0.000000 0.000000 1.399017 -0.000000 0.000000 -1.399017 -0.000000 0.000000 0.000000 -0.000000 0.000000 0.000000 0.000000 0.000000 0.000000 -0.000000 0.000000 0.000000 -0.000000 0.000000 0.000000 -0.000000 0.000000 0.000000 -0.000000 0.000000 0.000000 0.000000 0.000000 0.000000 0.000000 0.000000 0.000000 -0.000000 0.000000 0.000000 -0.000000 0.000000 0.000000 -0.000000 0.000000 0.000000 -0.000000 0.000000 0.000000 0.000000 0.000000 0.000000 0.000000 0.000000 0.000000 -0.000000 0.000000 -1.399017 -0.000000 0.000000 0.000000 -0.000000 0.000000 0.000000 0.000000 0.000000 0.000000 -0.000000 0.000000 -1.399017 -0.000000 0.000000 0.000000 -0.000000 0.000000 0.000000 0.000000 0.000000 0.000000
41.790870 66.306291 212.763499 -0.001167 -0.003966 1.329245 0.001259 0.003938 -1.329245 -0.000000 0.000000 0.000000 -0.000000 0.000000 0.000000 0.000000 0.000000 0.000000 -0.000000 0.000000 0.000000 -0.000000 0.000000 0.000000 -4.541877 -1.463408 -1.383679 6.155916 2.825700 1.658474 0.000000 0.000000 0.000000 0.000000 0.000000 0.000000 -0.000000 0.000000 0.000000 -0.000000 0.000000 0.000000 -1.460597 2.589211 1.298646 2.140512 -2.028315 -0.721508 0.000000 0.000000 0.000000 0.000000 0.000000 0.000000 0.001259 0.003938 -1.329245 -0.000000 0.000000 0.000000 -0.000000 0.000000 0.000000 0.000000 0.000000 0.000000 0.001259 0.003938 -1.329245 -0.000000 0.000000 0.000000 0.200174 -2.665171 -0.404837 0.000000 0.000000 0.000000
41.785426 66.308880 212.757481 -0.001908 -0.014652 1.271098 0.002232 0.014607 -1.271099 -0.000000 0.000000 0.000000 -0.000000 0.000000 0.000000 0.000000 0.000000 0.000000 -0.000000 0.000000 0.000000 0.552804 1.065991 0.219592 -7.600421 -3.359773 -2.592430 10.300729 5.500676 2.713886 0.000000 0.000000 0.000000 0.000000 0.000000 0.000000 -0.000000 0.000000 0.000000 -0.000000 0.000000 0.000000 -2.762709 4.712358 2.426441 3.456499 -3.664348 -1.421676 0.000000 0.000000 0.000000 0.000000 0.000000 0.000000 0.002232 0.014607 -1.271099 -0.000000 0.000000 0.000000 -0.000000 0.000000 0.000000 0.000000 0.000000 0.000000 0.002232 0.014607 -1.271099 -0.000000 0.000000 0.000000 0.377954 -5.278033 -0.786156 0.000000 0.000000 0.000000
41.779060 66.310045 212.748459 -0.002222 -0.032059 1.224574 0.002907 0.032005 -1.224575 -0.000000 0.000000 0.000000 -0.000000 0.000000 0.000000 0.000000 0.000000 0.000000 -0.000000 0.000000 0.000000 0.717595 1.481213 0.282234 -9.206635 -4.359785 -3.307337 13.321752 8.260458 3.495905 0.000000 0.000000 0.000000 0.000000 0.000000 0.000000 -0.000000 0.000000 0.000000 -0.000000 0.000000 0.000000 -3.891859 6.398078 3.367297 4.088025 -4.869471 -2.133420 0.000000 0.000000 0.000000 0.000000 0.000000 0.000000 0.002907 0.032005 -1.224575 -0.000000 0.000000 0.000000 -0.000000 0.000000 0.000000 0.000000 0.000000 0.000000 0.002907 0.032005 -1.224575 -0.000000 0.000000 0.000000 0.525426 -7.669901 -1.119861 0.000000 0.000000 0.000000
41.771771 66.309788 212.736435 -0.002110 -0.056187 1.189664 0.003276 0.056131 -1.189666 -0.000000 0.000000 0.000000 0.606639 -0.492087 -0.264094 0.000000 0.000000 0.000000 -0.000000 0.000000 0.000000 0.809504 1.819047 0.315400 -10.095400 -5.166009 -3.801626 15.424650 11.127186 4.125555 0.000000 0.000000 0.000000 0.000000 0.000000 0.000000 -0.000000 0.000000 0.000000 -0.000000 0.000000 0.000000 -4.838561 7.674793 4.109522 4.119210 -5.624043 -2.876397 0.000000 0.000000 0.000000 0.000000 0.000000 0.000000 0.003276 0.056131 -1.189666 -0.000000 0.000000 0.000000 -0.000000 0.000000 0.000000 0.000000 0.000000 0.000000 0.003276 0.056131 -1.189666 -0.000000 0.000000 0.000000 0.636935 -9.651130 -1.380065 0.000000 0.000000 0.000000
41.763559 66.308106 212.721408 -0.001572 -0.087035 1.166354 0.003343 0.086985 -1.166357 -0.000000 0.000000 0.000000 0.691766 -0.504252 -0.302436 0.000000 0.000000 0.000000 -0.000000 0.000000 0.000000 0.829196 2.080186 0.320048 -10.458330 -5.849154 -4.126051 16.543007 13.956807 4.662536 0.000000 0.000000 0.000000 0.000000 0.000000 0.000000 -0.000000 0.000000 0.000000 -0.000000 0.000000 0.000000 -5.596859 8.566618 4.644357 3.597736 -5.915449 -3.657388 0.000000 0.000000 0.000000 0.000000 0.000000 0.000000 0.003343 0.086985 -1.166357 -0.000000 0.000000 0.000000 -0.000000 0.000000 0.000000 0.000000 0.000000 0.000000 0.003343 0.086985 -1.166357 -0.000000 0.000000 0.000000 0.709430 -11.040635 -1.542930 0.000000 0.000000 0.000000
41.754176 66.305210 212.702302 -0.004817 -0.124434 1.156615 0.007328 0.124311 -1.156628 -0.000000 0.000000 0.000000 0.783027 -0.478436 -0.344651 0.000000 0.000000 0.000000 -0.000000 0.000000 0.000000 0.757888 2.333844 0.288247 -10.532373 -6.802478 -4.478867 18.102050 21.164494 5.886052 0.000000 0.000000 0.000000 0.000000 0.000000 0.000000 -0.169001 1.109547 0.295534 0.828080 -1.957373 -0.002360 -7.420596 9.934378 4.765456 2.195420 -5.220889 -4.706976 0.000000 0.000000 0.000000 0.000000 0.000000 0.000000 0.007328 0.124311 -1.156628 -0.000000 0.000000 0.000000 -0.000000 0.000000 0.000000 0.000000 0.000000 0.000000 0.007328 0.124311 -1.156628 -0.000000 0.000000 0.000000 0.812226 -13.128659 -1.832930 0.000000 0.000000 0.000000
41.743986 66.302355 212.679314 -0.005100 -0.169041 1.155187 0.008507 0.168904 -1.155207 -0.000000 0.000000 0.000000 0.827664 -0.403967 -0.367120 0.000000 0.000000 0.000000 -0.000000 0.000000 0.000000 0.677249 2.128451 0.258323 -10.264224 -5.809827 -4.015516 18.483065 19.997981 5.646196 0.000000 0.000000 0.000000 0.000000 0.000000 0.000000 -0.248690 1.386066 0.362676 0.149641 -2.395519 -0.340078 1.916306 9.040033 4.490945 -9.485220 0.004845 -6.029071 0.000000 0.000000 0.000000 0.000000 0.000000 0.000000 0.008507 0.168904 -1.155207 -0.000000 0.000000 0.000000 -0.000000 0.000000 0.000000 0.000000 0.000000 0.000000 0.008507 0.168904 -1.155207 -0.000000 0.000000 0.000000 0.846508 -13.888357 -1.873460 0.000000 0.000000 0.000000
41.732921 66.296612 212.656214 -0.003308 -0.221495 1.149654 0.007751 0.221384 -1.149676 -0.000000 0.000000 0.000000 0.816705 -0.260465 -0.366315 0.000000 0.000000 0.000000 -0.000000 0.000000 0.000000 0.481916 2.377515 0.177227 -9.235255 -7.198094 -4.225330 13.872700 19.628990 5.956006 0.000000 0.000000 0.000000 0.000000 0.000000 0.000000 -0.371890 1.590580 0.400354 1.430644 -3.141721 0.100960 -9.282231 10.811034 4.795340 -2.763359 1.502818 -5.436046 0.000000 0.000000 0.000000 0.000000 0.000000 0.000000 0.007751 0.221384 -1.149676 -0.000000 0.000000 0.000000 -0.000000 0.000000 0.000000 0.000000 0.000000 0.000000 0.007751 0.221384 -1.149676 -0.000000 0.000000 0.000000 0.812863 -13.183119 -1.722007 0.000000 0.000000 0.000000
